<svg width="1200" height="380" viewBox="0 0 1200 380" fill="none" xmlns="http://www.w3.org/2000/svg">
<g clip-path="url(#clip0)">
<path d="M0 0H1200V380H0V0Z" fill="#E6E6E6"/>
<path d="M239.991 39.2542H238.805V34.2525H234.353V39.2542H233.167V29.0381H234.353V33.0449H238.805V29.0381H239.991V39.2542Z" fill="black"/>
<path d="M247.504 39.2541H246.383V38.4377C246.283 38.5154 246.148 38.6252 245.976 38.767C245.808 38.9042 245.644 39.014 245.485 39.0963C245.297 39.2015 245.081 39.2884 244.838 39.3571C244.594 39.4302 244.308 39.4668 243.981 39.4668C243.378 39.4668 242.867 39.2381 242.447 38.7807C242.028 38.3233 241.818 37.7401 241.818 37.0312C241.818 36.4503 241.926 35.9814 242.142 35.6247C242.361 35.2633 242.673 34.9797 243.076 34.7739C243.484 34.5681 243.973 34.4286 244.544 34.3554C245.115 34.2822 245.728 34.2273 246.383 34.1907V33.9917C246.383 33.699 246.337 33.4566 246.245 33.2645C246.158 33.0724 246.03 32.9214 245.862 32.8117C245.702 32.7065 245.511 32.6356 245.287 32.599C245.063 32.5624 244.83 32.5441 244.586 32.5441C244.29 32.5441 243.961 32.5898 243.597 32.6813C243.234 32.7682 242.859 32.8962 242.471 33.0655H242.411V31.755C242.631 31.6864 242.948 31.6109 243.364 31.5286C243.779 31.4463 244.189 31.4051 244.592 31.4051C245.063 31.4051 245.473 31.4509 245.82 31.5423C246.172 31.6292 246.475 31.7802 246.731 31.9952C246.982 32.2056 247.174 32.4777 247.306 32.8116C247.438 33.1455 247.504 33.5595 247.504 34.0535V39.2541ZM246.383 37.3674V35.2336C246.04 35.2565 245.634 35.2908 245.167 35.3365C244.704 35.3823 244.336 35.4486 244.065 35.5355C243.741 35.6407 243.48 35.8053 243.28 36.0295C243.08 36.249 242.98 36.5532 242.98 36.942C242.98 37.3811 243.096 37.7127 243.328 37.9368C243.56 38.1564 243.913 38.2662 244.388 38.2662C244.784 38.2662 245.145 38.1793 245.473 38.0054C245.8 37.8271 246.104 37.6144 246.383 37.3674V37.3674Z" fill="black"/>
<path d="M253.86 32.9969H253.8C253.633 32.9512 253.469 32.9191 253.309 32.9009C253.153 32.878 252.968 32.8666 252.752 32.8666C252.404 32.8666 252.069 32.9558 251.745 33.1341C251.422 33.308 251.11 33.5344 250.811 33.8134V39.2542H249.684V31.5904H250.811V32.7225C251.258 32.3108 251.652 32.0204 251.991 31.8511C252.334 31.6773 252.684 31.5904 253.039 31.5904C253.235 31.5904 253.377 31.5973 253.465 31.611C253.553 31.6201 253.684 31.6407 253.86 31.6727V32.9969Z" fill="black"/>
<path d="M264.698 39.2541H263.572V34.8905C263.572 34.5612 263.558 34.2433 263.53 33.9368C263.506 33.6304 263.452 33.3857 263.368 33.2027C263.276 33.006 263.144 32.8574 262.973 32.7568C262.801 32.6561 262.553 32.6058 262.23 32.6058C261.914 32.6058 261.599 32.6973 261.283 32.8803C260.968 33.0587 260.652 33.2874 260.337 33.5664C260.348 33.6716 260.358 33.7951 260.366 33.9369C260.374 34.0741 260.378 34.2113 260.378 34.3485V39.2542H259.252V34.8905C259.252 34.5521 259.238 34.2319 259.21 33.93C259.186 33.6235 259.132 33.3788 259.048 33.1959C258.957 32.9992 258.825 32.8528 258.653 32.7568C258.481 32.6561 258.234 32.6058 257.91 32.6058C257.603 32.6058 257.293 32.6927 256.982 32.8665C256.674 33.0404 256.366 33.2622 256.059 33.5321V39.2542H254.933V31.5904H256.059V32.4411C256.41 32.1072 256.76 31.8465 257.107 31.659C257.459 31.4715 257.832 31.3777 258.228 31.3777C258.683 31.3777 259.068 31.4875 259.384 31.707C259.703 31.9266 259.941 32.2307 260.097 32.6195C260.552 32.1804 260.968 31.8648 261.343 31.6727C261.718 31.476 262.12 31.3777 262.547 31.3777C263.282 31.3777 263.823 31.6338 264.171 32.1461C264.522 32.6538 264.698 33.3651 264.698 34.2799V39.2541Z" fill="black"/>
<path d="M272.57 35.4257C272.57 36.6744 272.291 37.6601 271.732 38.3828C271.172 39.1055 270.424 39.4668 269.485 39.4668C268.538 39.4668 267.785 39.1055 267.226 38.3828C266.671 37.6601 266.394 36.6744 266.394 35.4257C266.394 34.177 266.671 33.1913 267.226 32.4686C267.785 31.7413 268.538 31.3777 269.485 31.3777C270.424 31.3777 271.172 31.7413 271.732 32.4686C272.291 33.1913 272.57 34.177 272.57 35.4257ZM271.408 35.4257C271.408 34.4331 271.238 33.6967 270.899 33.2164C270.559 32.7316 270.088 32.4892 269.485 32.4892C268.874 32.4892 268.399 32.7316 268.059 33.2164C267.724 33.6967 267.556 34.4331 267.556 35.4257C267.556 36.3862 267.726 37.1158 268.065 37.6144C268.405 38.1083 268.878 38.3553 269.485 38.3553C270.084 38.3553 270.553 38.1106 270.893 37.6212C271.236 37.1272 271.408 36.3954 271.408 35.4257Z" fill="black"/>
<path d="M279.915 39.2541H278.789V34.8905C278.789 34.5383 278.771 34.209 278.735 33.9025C278.699 33.5915 278.633 33.3491 278.537 33.1753C278.437 32.9832 278.294 32.8414 278.106 32.7499C277.918 32.6538 277.674 32.6058 277.375 32.6058C277.067 32.6058 276.746 32.6927 276.41 32.8665C276.075 33.0404 275.753 33.2622 275.446 33.5321V39.2542H274.319V31.5904H275.446V32.4411C275.797 32.1072 276.161 31.8465 276.536 31.659C276.911 31.4715 277.297 31.3777 277.692 31.3777C278.415 31.3777 278.966 31.627 279.346 32.1255C279.725 32.6241 279.915 33.3422 279.915 34.2799V39.2541Z" fill="black"/>
<path d="M283.294 30.3074H282.024V28.9695H283.294V30.3074ZM283.222 39.2541H282.096V31.5904H283.222V39.2541Z" fill="black"/>
<path d="M290.411 38.7739C290.036 38.9797 289.678 39.1398 289.339 39.2541C289.003 39.3685 288.646 39.4256 288.267 39.4256C287.783 39.4256 287.34 39.3456 286.937 39.1855C286.533 39.0208 286.188 38.7738 285.9 38.4445C285.609 38.1152 285.383 37.699 285.223 37.1958C285.063 36.6927 284.983 36.1049 284.983 35.4325C284.983 34.1793 285.283 33.1958 285.882 32.4823C286.485 31.7687 287.28 31.412 288.266 31.412C288.65 31.412 289.025 31.4737 289.393 31.5972C289.764 31.7207 290.104 31.8717 290.411 32.05V33.484H290.351C290.008 33.1775 289.652 32.942 289.285 32.7773C288.921 32.6126 288.566 32.5303 288.219 32.5303C287.579 32.5303 287.074 32.7773 286.703 33.2713C286.335 33.7607 286.152 34.4811 286.152 35.4325C286.152 36.3565 286.331 37.0677 286.691 37.5663C287.054 38.0603 287.564 38.3073 288.219 38.3073C288.446 38.3073 288.678 38.273 288.913 38.2044C289.149 38.1358 289.361 38.0466 289.549 37.9368C289.712 37.8407 289.866 37.7401 290.01 37.6349C290.154 37.5251 290.267 37.4313 290.351 37.3535H290.411L290.411 38.7739Z" fill="black"/>
<path d="M302.1 32.1255C302.1 32.5784 302.03 32.9992 301.89 33.388C301.754 33.7722 301.563 34.1061 301.315 34.3897C301.008 34.7419 300.644 35.0072 300.225 35.1856C299.805 35.3594 299.276 35.4463 298.637 35.4463H297.451V39.2542H296.265V29.0381H298.685C299.22 29.0381 299.674 29.0907 300.045 29.1959C300.416 29.2965 300.746 29.4566 301.034 29.6762C301.373 29.9369 301.635 30.2616 301.818 30.6504C302.006 31.0392 302.1 31.5309 302.1 32.1255H302.1ZM300.866 32.1599C300.866 31.8077 300.812 31.5012 300.704 31.2405C300.596 30.9798 300.432 30.7671 300.213 30.6024C300.021 30.4606 299.801 30.36 299.554 30.3005C299.31 30.2365 299 30.2045 298.625 30.2045H297.451V34.2868H298.451C298.931 34.2868 299.32 34.2387 299.619 34.1427C299.919 34.0421 300.163 33.8843 300.35 33.6693C300.538 33.4497 300.67 33.2187 300.746 32.9763C300.826 32.7339 300.866 32.4617 300.866 32.1599L300.866 32.1599Z" fill="black"/>
<path d="M307.756 32.9969H307.696C307.528 32.9512 307.364 32.9191 307.204 32.9009C307.049 32.878 306.863 32.8666 306.647 32.8666C306.3 32.8666 305.964 32.9558 305.641 33.1341C305.317 33.308 305.006 33.5344 304.706 33.8134V39.2542H303.58V31.5904H304.706V32.7225C305.153 32.3108 305.547 32.0204 305.886 31.8511C306.23 31.6773 306.579 31.5904 306.935 31.5904C307.131 31.5904 307.272 31.5973 307.36 31.611C307.448 31.6201 307.58 31.6407 307.756 31.6727V32.9969Z" fill="black"/>
<path d="M314.531 35.4257C314.531 36.6744 314.252 37.6601 313.693 38.3828C313.133 39.1055 312.384 39.4668 311.446 39.4668C310.499 39.4668 309.746 39.1055 309.187 38.3828C308.632 37.6601 308.354 36.6744 308.354 35.4257C308.354 34.177 308.632 33.1913 309.187 32.4686C309.746 31.7413 310.499 31.3777 311.446 31.3777C312.384 31.3777 313.133 31.7413 313.693 32.4686C314.252 33.1913 314.531 34.177 314.531 35.4257ZM313.369 35.4257C313.369 34.4331 313.199 33.6967 312.86 33.2164C312.52 32.7316 312.049 32.4892 311.446 32.4892C310.835 32.4892 310.36 32.7316 310.02 33.2164C309.685 33.6967 309.517 34.4331 309.517 35.4257C309.517 36.3862 309.687 37.1158 310.026 37.6144C310.366 38.1083 310.839 38.3553 311.446 38.3553C312.045 38.3553 312.514 38.1106 312.854 37.6212C313.197 37.1272 313.369 36.3954 313.369 35.4257Z" fill="black"/>
<path d="M321.709 38.3828C321.709 39.6818 321.451 40.6355 320.936 41.2438C320.421 41.8522 319.628 42.1563 318.557 42.1563C318.202 42.1563 317.854 42.1266 317.515 42.0672C317.179 42.0123 316.848 41.9322 316.52 41.827V40.5097H316.58C316.764 40.592 317.056 40.6927 317.455 40.8116C317.854 40.9351 318.254 40.9969 318.653 40.9969C319.037 40.9969 319.354 40.9443 319.606 40.8391C319.857 40.7339 320.053 40.5875 320.193 40.4C320.333 40.2216 320.432 40.0066 320.492 39.755C320.552 39.5035 320.582 39.2221 320.582 38.9111V38.2113C320.243 38.5223 319.917 38.7556 319.606 38.9111C319.298 39.0621 318.905 39.1375 318.425 39.1375C317.627 39.1375 316.992 38.8082 316.52 38.1495C316.053 37.4863 315.819 36.5532 315.819 35.3502C315.819 34.6916 315.899 34.1244 316.059 33.6487C316.223 33.1684 316.445 32.7545 316.724 32.4069C316.984 32.0821 317.299 31.8305 317.671 31.6522C318.042 31.4692 318.412 31.3777 318.779 31.3777C319.166 31.3777 319.49 31.4235 319.749 31.5149C320.013 31.6018 320.291 31.7368 320.582 31.9197L320.654 31.5904H321.708L321.709 38.3828ZM320.582 37.1478V32.9694C320.283 32.8139 320.003 32.7041 319.744 32.6401C319.488 32.5715 319.232 32.5372 318.977 32.5372C318.358 32.5372 317.87 32.7751 317.515 33.2508C317.159 33.7265 316.982 34.4171 316.982 35.3228C316.982 36.1827 317.113 36.8345 317.377 37.2782C317.641 37.7219 318.078 37.9437 318.689 37.9437C319.017 37.9437 319.344 37.8728 319.672 37.731C320.003 37.5846 320.307 37.3902 320.582 37.1478V37.1478Z" fill="black"/>
<path d="M328.101 32.9969H328.041C327.873 32.9512 327.709 32.9191 327.55 32.9009C327.394 32.878 327.208 32.8666 326.992 32.8666C326.645 32.8666 326.309 32.9558 325.986 33.1341C325.662 33.308 325.351 33.5344 325.051 33.8134V39.2542H323.925V31.5904H325.051V32.7225C325.499 32.3108 325.892 32.0204 326.232 31.8511C326.575 31.6773 326.925 31.5904 327.28 31.5904C327.476 31.5904 327.618 31.5973 327.705 31.611C327.793 31.6201 327.925 31.6407 328.101 31.6727V32.9969Z" fill="black"/>
<path d="M334.775 35.556H329.844C329.844 36.0272 329.906 36.4388 330.03 36.791C330.154 37.1387 330.324 37.4245 330.539 37.6487C330.747 37.8682 330.992 38.0329 331.276 38.1426C331.564 38.2524 331.879 38.3073 332.223 38.3073C332.678 38.3073 333.135 38.2044 333.595 37.9986C334.058 37.7882 334.387 37.5823 334.583 37.3811H334.643V38.7876C334.264 38.9706 333.876 39.1238 333.481 39.2473C333.085 39.3708 332.67 39.4325 332.235 39.4325C331.124 39.4325 330.258 39.0895 329.635 38.4034C329.011 37.7127 328.7 36.7339 328.7 35.4669C328.7 34.2136 328.998 33.2187 329.593 32.4823C330.192 31.7459 330.979 31.3777 331.953 31.3777C332.856 31.3777 333.551 31.6796 334.038 32.2833C334.529 32.8871 334.775 33.7447 334.775 34.8562L334.775 35.556ZM333.679 34.5681C333.675 33.8911 333.525 33.3674 333.229 32.9969C332.938 32.6264 332.492 32.4411 331.893 32.4411C331.29 32.4411 330.809 32.6447 330.449 33.0518C330.094 33.4589 329.892 33.9643 329.844 34.5681H333.679Z" fill="black"/>
<path d="M341.263 37.0449C341.263 37.7447 341.01 38.3188 340.502 38.767C339.999 39.2153 339.31 39.4394 338.436 39.4394C337.94 39.4394 337.485 39.3731 337.07 39.2404C336.658 39.1032 336.313 38.9545 336.033 38.7945V37.3468H336.093C336.449 37.6532 336.844 37.8979 337.279 38.0809C337.715 38.2593 338.132 38.3485 338.531 38.3485C339.027 38.3485 339.414 38.257 339.694 38.074C339.973 37.8911 340.113 37.6029 340.113 37.2096C340.113 36.9077 340.037 36.679 339.885 36.5235C339.734 36.3679 339.442 36.2353 339.011 36.1255C338.851 36.0843 338.641 36.0363 338.382 35.9814C338.126 35.9265 337.892 35.8671 337.681 35.8031C337.093 35.6247 336.676 35.364 336.428 35.0209C336.185 34.6733 336.063 34.2479 336.063 33.7448C336.063 33.4291 336.119 33.1318 336.231 32.8528C336.346 32.5738 336.52 32.3245 336.752 32.105C336.976 31.89 337.259 31.7208 337.603 31.5973C337.95 31.4692 338.337 31.4052 338.765 31.4052C339.164 31.4052 339.568 31.4623 339.975 31.5767C340.386 31.6864 340.728 31.8214 341 31.9815V33.3605H340.94C340.652 33.1181 340.303 32.9146 339.891 32.7499C339.48 32.5807 339.076 32.496 338.681 32.496C338.27 32.496 337.922 32.5875 337.639 32.7705C337.355 32.9489 337.213 33.2165 337.213 33.5732C337.213 33.8888 337.299 34.1267 337.471 34.2868C337.638 34.4469 337.91 34.5772 338.286 34.6779C338.493 34.7328 338.725 34.7876 338.98 34.8425C339.24 34.8974 339.456 34.9477 339.628 34.9935C340.151 35.1307 340.554 35.3662 340.838 35.7001C341.121 36.0386 341.263 36.4869 341.263 37.0449H341.263Z" fill="black"/>
<path d="M347.662 37.0449C347.662 37.7447 347.408 38.3188 346.901 38.767C346.398 39.2153 345.709 39.4394 344.834 39.4394C344.339 39.4394 343.883 39.3731 343.468 39.2404C343.057 39.1032 342.711 38.9545 342.432 38.7945V37.3468H342.492C342.847 37.6532 343.242 37.8979 343.678 38.0809C344.113 38.2593 344.531 38.3485 344.93 38.3485C345.425 38.3485 345.813 38.257 346.092 38.074C346.372 37.8911 346.512 37.6029 346.512 37.2096C346.512 36.9077 346.436 36.679 346.284 36.5235C346.132 36.3679 345.841 36.2353 345.409 36.1255C345.25 36.0843 345.04 36.0363 344.78 35.9814C344.525 35.9265 344.291 35.8671 344.079 35.8031C343.492 35.6247 343.075 35.364 342.827 35.0209C342.584 34.6733 342.462 34.2479 342.462 33.7448C342.462 33.4291 342.518 33.1318 342.629 32.8528C342.745 32.5738 342.919 32.3245 343.151 32.105C343.374 31.89 343.658 31.7208 344.001 31.5973C344.349 31.4692 344.736 31.4052 345.164 31.4052C345.563 31.4052 345.966 31.4623 346.374 31.5767C346.785 31.6864 347.127 31.8214 347.398 31.9815V33.3605H347.338C347.051 33.1181 346.701 32.9146 346.29 32.7499C345.878 32.5807 345.475 32.496 345.08 32.496C344.668 32.496 344.321 32.5875 344.037 32.7705C343.754 32.9489 343.612 33.2165 343.612 33.5732C343.612 33.8888 343.698 34.1267 343.869 34.2868C344.037 34.4469 344.309 34.5772 344.684 34.6779C344.892 34.7328 345.124 34.7876 345.379 34.8425C345.639 34.8974 345.855 34.9477 346.026 34.9935C346.549 35.1307 346.953 35.3662 347.236 35.7001C347.52 36.0386 347.662 36.4869 347.662 37.0449H347.662Z" fill="black"/>
<path d="M350.49 30.3074H349.219V28.9695H350.49V30.3074ZM350.418 39.2541H349.291V31.5904H350.418V39.2541Z" fill="black"/>
<path d="M358.362 35.4257C358.362 36.6744 358.082 37.6601 357.523 38.3828C356.964 39.1055 356.215 39.4668 355.276 39.4668C354.33 39.4668 353.577 39.1055 353.018 38.3828C352.463 37.6601 352.185 36.6744 352.185 35.4257C352.185 34.177 352.463 33.1913 353.018 32.4686C353.577 31.7413 354.33 31.3777 355.276 31.3777C356.215 31.3777 356.964 31.7413 357.523 32.4686C358.082 33.1913 358.362 34.177 358.362 35.4257ZM357.2 35.4257C357.2 34.4331 357.03 33.6967 356.69 33.2164C356.351 32.7316 355.88 32.4892 355.276 32.4892C354.665 32.4892 354.19 32.7316 353.851 33.2164C353.515 33.6967 353.347 34.4331 353.347 35.4257C353.347 36.3862 353.517 37.1158 353.857 37.6144C354.196 38.1083 354.669 38.3553 355.276 38.3553C355.876 38.3553 356.345 38.1106 356.684 37.6212C357.028 37.1272 357.2 36.3954 357.2 35.4257Z" fill="black"/>
<path d="M365.707 39.2541H364.58V34.8905C364.58 34.5383 364.562 34.209 364.526 33.9025C364.491 33.5915 364.425 33.3491 364.329 33.1753C364.229 32.9832 364.085 32.8414 363.897 32.7499C363.71 32.6538 363.466 32.6058 363.166 32.6058C362.859 32.6058 362.537 32.6927 362.202 32.8665C361.866 33.0404 361.545 33.2622 361.237 33.5321V39.2542H360.111V31.5904H361.237V32.4411C361.589 32.1072 361.952 31.8465 362.328 31.659C362.703 31.4715 363.089 31.3777 363.484 31.3777C364.207 31.3777 364.758 31.627 365.138 32.1255C365.517 32.6241 365.707 33.3422 365.707 34.2799L365.707 39.2541Z" fill="black"/>
<path d="M379.168 38.5131C378.949 38.6229 378.749 38.7258 378.569 38.8219C378.394 38.918 378.162 39.0186 377.874 39.1238C377.631 39.2107 377.365 39.2839 377.078 39.3433C376.794 39.4074 376.48 39.4394 376.137 39.4394C375.49 39.4394 374.901 39.3364 374.37 39.1306C373.842 38.9202 373.383 38.5932 372.992 38.1495C372.608 37.7149 372.309 37.1638 372.093 36.496C371.877 35.8236 371.77 35.0437 371.77 34.1564C371.77 33.3147 371.873 32.5623 372.081 31.8991C372.289 31.2359 372.588 30.6755 372.98 30.2181C373.359 29.7745 373.816 29.436 374.352 29.2027C374.891 28.9694 375.488 28.8528 376.143 28.8528C376.622 28.8528 377.1 28.9191 377.575 29.0518C378.054 29.1844 378.585 29.4177 379.168 29.7516V31.3639H379.079C378.587 30.8928 378.1 30.5498 377.617 30.3348C377.134 30.1198 376.616 30.0123 376.065 30.0123C375.614 30.0123 375.206 30.0969 374.843 30.2662C374.484 30.4308 374.162 30.6893 373.878 31.0415C373.603 31.3845 373.387 31.819 373.231 32.3451C373.08 32.8665 373.004 33.4703 373.004 34.1564C373.004 34.8745 373.088 35.492 373.255 36.0088C373.427 36.5257 373.647 36.9465 373.914 37.2713C374.194 37.6097 374.52 37.8613 374.891 38.026C375.266 38.1861 375.662 38.2661 376.077 38.2661C376.648 38.2661 377.184 38.1541 377.683 37.9299C378.182 37.7058 378.649 37.3696 379.085 36.9214H379.169L379.168 38.5131Z" fill="black"/>
<path d="M381.978 30.3074H380.708V28.9695H381.978V30.3074ZM381.907 39.2541H380.78V31.5904H381.907V39.2541Z" fill="black"/>
<path d="M388.323 32.9969H388.263C388.095 32.9512 387.932 32.9191 387.772 32.9009C387.616 32.878 387.43 32.8666 387.215 32.8666C386.867 32.8666 386.532 32.9558 386.208 33.1341C385.885 33.308 385.573 33.5344 385.274 33.8134V39.2542H384.147V31.5904H385.274V32.7225C385.721 32.3108 386.114 32.0204 386.454 31.8511C386.797 31.6773 387.147 31.5904 387.502 31.5904C387.698 31.5904 387.84 31.5973 387.928 31.611C388.015 31.6201 388.147 31.6407 388.323 31.6727V32.9969Z" fill="black"/>
<path d="M394.344 38.7739C393.969 38.9797 393.611 39.1398 393.272 39.2541C392.936 39.3685 392.579 39.4256 392.199 39.4256C391.716 39.4256 391.273 39.3456 390.869 39.1855C390.466 39.0208 390.12 38.7738 389.833 38.4445C389.541 38.1152 389.315 37.699 389.156 37.1958C388.996 36.6927 388.916 36.1049 388.916 35.4325C388.916 34.1793 389.216 33.1958 389.815 32.4823C390.418 31.7687 391.213 31.412 392.199 31.412C392.583 31.412 392.958 31.4737 393.325 31.5972C393.697 31.7207 394.036 31.8717 394.344 32.05V33.484H394.284C393.941 33.1775 393.585 32.942 393.218 32.7773C392.854 32.6126 392.499 32.5303 392.151 32.5303C391.512 32.5303 391.007 32.7773 390.635 33.2713C390.268 33.7607 390.084 34.4811 390.084 35.4325C390.084 36.3565 390.264 37.0677 390.623 37.5663C390.987 38.0603 391.496 38.3073 392.151 38.3073C392.379 38.3073 392.61 38.273 392.846 38.2044C393.082 38.1358 393.293 38.0466 393.481 37.9368C393.645 37.8407 393.799 37.7401 393.943 37.6349C394.086 37.5251 394.2 37.4313 394.284 37.3535H394.344L394.344 38.7739Z" fill="black"/>
<path d="M396.932 39.2541H395.806V28.5784H396.932V39.2541Z" fill="black"/>
<path d="M404.774 35.556H399.844C399.844 36.0272 399.906 36.4388 400.029 36.791C400.153 37.1387 400.323 37.4245 400.539 37.6487C400.746 37.8682 400.992 38.0329 401.276 38.1426C401.563 38.2524 401.879 38.3073 402.222 38.3073C402.678 38.3073 403.135 38.2044 403.594 37.9986C404.058 37.7882 404.387 37.5823 404.583 37.3811H404.643V38.7876C404.263 38.9706 403.876 39.1238 403.48 39.2473C403.085 39.3708 402.67 39.4325 402.234 39.4325C401.124 39.4325 400.257 39.0895 399.634 38.4034C399.011 37.7127 398.699 36.7339 398.699 35.4669C398.699 34.2136 398.997 33.2187 399.592 32.4823C400.191 31.7459 400.978 31.3777 401.953 31.3777C402.855 31.3777 403.55 31.6796 404.037 32.2833C404.529 32.8871 404.774 33.7447 404.774 34.8562L404.774 35.556ZM403.678 34.5681C403.674 33.8911 403.524 33.3674 403.229 32.9969C402.937 32.6264 402.492 32.4411 401.893 32.4411C401.289 32.4411 400.808 32.6447 400.449 33.0518C400.093 33.4589 399.892 33.9643 399.844 34.5681H403.678Z" fill="black"/>
<path d="M416.499 35.4257C416.499 36.6744 416.219 37.6601 415.66 38.3828C415.101 39.1055 414.352 39.4668 413.413 39.4668C412.467 39.4668 411.714 39.1055 411.155 38.3828C410.6 37.6601 410.322 36.6744 410.322 35.4257C410.322 34.177 410.6 33.1913 411.155 32.4686C411.714 31.7413 412.467 31.3777 413.413 31.3777C414.352 31.3777 415.101 31.7413 415.66 32.4686C416.219 33.1913 416.499 34.177 416.499 35.4257ZM415.336 35.4257C415.336 34.4331 415.167 33.6967 414.827 33.2164C414.488 32.7316 414.016 32.4892 413.413 32.4892C412.802 32.4892 412.327 32.7316 411.988 33.2164C411.652 33.6967 411.484 34.4331 411.484 35.4257C411.484 36.3862 411.654 37.1158 411.994 37.6144C412.333 38.1083 412.806 38.3553 413.413 38.3553C414.012 38.3553 414.482 38.1106 414.821 37.6212C415.165 37.1272 415.336 36.3954 415.336 35.4257Z" fill="black"/>
<path d="M421.849 29.8271H421.789C421.665 29.7859 421.503 29.7448 421.304 29.7036C421.104 29.6579 420.928 29.635 420.776 29.635C420.293 29.635 419.942 29.7585 419.722 30.0055C419.506 30.2479 419.398 30.6893 419.398 31.3297V31.5904H421.429V32.6744H419.434V39.2541H418.308V32.6744H417.547V31.5904H418.308V31.3365C418.308 30.4263 418.506 29.7288 418.901 29.2439C419.297 28.7545 419.868 28.5098 420.615 28.5098C420.866 28.5098 421.092 28.5235 421.292 28.5509C421.495 28.5784 421.681 28.6104 421.849 28.647V29.8271Z" fill="black"/>
<path d="M432.698 36.0089C432.698 36.4846 432.623 36.9397 432.471 37.3742C432.319 37.8088 432.111 38.1747 431.848 38.472C431.56 38.7922 431.217 39.0392 430.817 39.213C430.422 39.3822 429.963 39.4668 429.439 39.4668C428.952 39.4668 428.483 39.4074 428.031 39.2885C427.58 39.1741 427.199 39.0346 426.887 38.8699V37.4223H426.971C427.299 37.6601 427.682 37.8637 428.121 38.0329C428.561 38.1976 428.992 38.2799 429.415 38.2799C429.699 38.2799 429.973 38.2342 430.236 38.1427C430.504 38.0512 430.741 37.8911 430.949 37.6624C431.125 37.4657 431.257 37.2302 431.345 36.9557C431.436 36.6813 431.482 36.3634 431.482 36.0021C431.482 35.6499 431.428 35.3525 431.321 35.1101C431.217 34.8677 431.071 34.6733 430.883 34.5269C430.676 34.3531 430.422 34.2319 430.122 34.1633C429.827 34.0901 429.495 34.0535 429.128 34.0535C428.776 34.0535 428.437 34.081 428.109 34.1359C427.786 34.1907 427.506 34.2456 427.271 34.3005V29.0381H432.639V30.2388H428.427V32.9557C428.599 32.9374 428.774 32.9237 428.954 32.9146C429.134 32.9055 429.29 32.901 429.421 32.901C429.905 32.901 430.328 32.949 430.692 33.045C431.055 33.1365 431.388 33.3012 431.692 33.539C432.012 33.7906 432.259 34.1153 432.435 34.5133C432.611 34.9112 432.699 35.4098 432.699 36.009L432.698 36.0089Z" fill="black"/>
<path d="M438.162 39.1855C437.95 39.2496 437.719 39.3022 437.467 39.3433C437.22 39.3845 436.998 39.4051 436.802 39.4051C436.119 39.4051 435.6 39.1947 435.244 38.7739C434.889 38.353 434.711 37.6784 434.711 36.7499V32.6744H433.95V31.5904H434.711V29.388H435.838V31.5904H438.162V32.6744H435.838V36.1667C435.838 36.5692 435.846 36.8848 435.862 37.1135C435.879 37.3376 435.935 37.548 436.03 37.7447C436.118 37.9277 436.238 38.0626 436.39 38.1495C436.545 38.2318 436.781 38.273 437.096 38.273C437.28 38.273 437.472 38.2432 437.672 38.1838C437.871 38.1198 438.015 38.0672 438.103 38.026H438.163L438.162 39.1855Z" fill="black"/>
<path d="M445.124 39.2541H443.997V34.8905C443.997 34.5383 443.979 34.209 443.943 33.9025C443.908 33.5915 443.842 33.3491 443.746 33.1753C443.646 32.9832 443.502 32.8414 443.314 32.7499C443.127 32.6538 442.883 32.6058 442.584 32.6058C442.276 32.6058 441.954 32.6927 441.619 32.8665C441.283 33.0403 440.962 33.2622 440.654 33.532V39.2541H439.528V28.5784H440.654V32.4411C441.006 32.1072 441.369 31.8465 441.745 31.659C442.12 31.4714 442.506 31.3777 442.901 31.3777C443.624 31.3777 444.175 31.6269 444.555 32.1255C444.934 32.6241 445.124 33.3422 445.124 34.2799L445.124 39.2541Z" fill="black"/>
<path d="M452.073 37.0449C452.073 37.7447 451.82 38.3188 451.313 38.767C450.809 39.2153 450.12 39.4394 449.246 39.4394C448.75 39.4394 448.295 39.3731 447.88 39.2404C447.468 39.1032 447.123 38.9545 446.843 38.7945V37.3468H446.903C447.259 37.6532 447.654 37.8979 448.089 38.0809C448.525 38.2593 448.942 38.3485 449.342 38.3485C449.837 38.3485 450.224 38.257 450.504 38.074C450.783 37.8911 450.923 37.6029 450.923 37.2096C450.923 36.9077 450.847 36.679 450.695 36.5235C450.544 36.3679 450.252 36.2353 449.821 36.1255C449.661 36.0843 449.451 36.0363 449.192 35.9814C448.936 35.9265 448.702 35.8671 448.491 35.8031C447.904 35.6247 447.486 35.364 447.239 35.0209C446.995 34.6733 446.873 34.2479 446.873 33.7448C446.873 33.4291 446.929 33.1318 447.041 32.8528C447.156 32.5738 447.33 32.3245 447.562 32.105C447.786 31.89 448.069 31.7208 448.413 31.5973C448.76 31.4692 449.148 31.4052 449.575 31.4052C449.974 31.4052 450.378 31.4623 450.785 31.5767C451.196 31.6864 451.538 31.8214 451.81 31.9815V33.3605H451.75C451.462 33.1181 451.113 32.9146 450.701 32.7499C450.29 32.5807 449.886 32.496 449.491 32.496C449.08 32.496 448.732 32.5875 448.449 32.7705C448.165 32.9489 448.023 33.2165 448.023 33.5732C448.023 33.8888 448.109 34.1267 448.281 34.2868C448.449 34.4469 448.72 34.5772 449.096 34.6779C449.303 34.7328 449.535 34.7876 449.791 34.8425C450.05 34.8974 450.266 34.9477 450.438 34.9935C450.961 35.1307 451.364 35.3662 451.648 35.7001C451.931 36.0386 452.073 36.4869 452.073 37.0449H452.073Z" fill="black"/>
<path d="M262.387 13.9428C262.387 14.8484 262.247 15.69 261.967 16.4676C261.696 17.236 261.312 17.9039 260.817 18.471C260.202 19.1754 259.475 19.706 258.636 20.0628C257.797 20.4104 256.739 20.5842 255.461 20.5842H253.088V28.2H250.716V7.76784H255.557C256.627 7.76784 257.534 7.87304 258.277 8.08344C259.02 8.2847 259.679 8.60488 260.254 9.04399C260.933 9.56542 261.456 10.2149 261.823 10.9925C262.199 11.7701 262.387 12.7535 262.387 13.9428ZM259.918 14.0114C259.918 13.307 259.81 12.6941 259.595 12.1726C259.379 11.6512 259.052 11.2258 258.612 10.8965C258.229 10.6129 257.789 10.4116 257.294 10.2927C256.807 10.1646 256.188 10.1006 255.437 10.1006H253.088V18.2652H255.09C256.048 18.2652 256.827 18.1691 257.426 17.977C258.025 17.7758 258.512 17.4602 258.888 17.0302C259.263 16.5911 259.527 16.1291 259.679 15.6443C259.838 15.1594 259.918 14.6151 259.918 14.0114L259.918 14.0114Z" fill="black"/>
<path d="M278.491 22.3681C278.491 23.164 278.327 23.9507 277.999 24.7283C277.68 25.5058 277.228 26.1645 276.645 26.7042C276.006 27.2897 275.259 27.7471 274.405 28.0764C273.558 28.4058 272.535 28.5704 271.337 28.5704C270.051 28.5704 268.893 28.4332 267.862 28.1588C266.84 27.8843 265.798 27.4772 264.735 26.9375V23.5344H264.903C265.806 24.3944 266.848 25.0576 268.03 25.5241C269.212 25.9907 270.323 26.224 271.361 26.224C272.831 26.224 273.973 25.9084 274.788 25.2771C275.611 24.6459 276.022 23.8043 276.022 22.7523C276.022 21.8466 275.827 21.1788 275.435 20.7489C275.052 20.3189 274.465 19.985 273.674 19.7472C273.075 19.5642 272.424 19.4133 271.721 19.2943C271.026 19.1754 270.287 19.0245 269.504 18.8415C267.922 18.4573 266.748 17.8032 265.981 16.8793C265.222 15.9462 264.843 14.734 264.843 13.2429C264.843 11.5322 265.474 10.1326 266.736 9.04397C267.998 7.94621 269.6 7.39732 271.541 7.39732C272.795 7.39732 273.945 7.53454 274.992 7.80898C276.038 8.08343 276.965 8.4219 277.772 8.82442V12.0354H277.604C276.925 11.3767 276.03 10.8324 274.92 10.4025C273.818 9.96335 272.687 9.74379 271.529 9.74379C270.259 9.74379 269.236 10.0457 268.462 10.6494C267.695 11.2532 267.311 12.0308 267.311 12.9822C267.311 13.833 267.503 14.5008 267.886 14.9856C268.27 15.4705 268.945 15.841 269.911 16.0971C270.423 16.2252 271.15 16.3807 272.092 16.5636C273.035 16.7466 273.833 16.9341 274.489 17.1263C275.815 17.5288 276.813 18.1371 277.484 18.9513C278.155 19.7655 278.491 20.9044 278.491 22.3681Z" fill="black"/>
<path d="M323.737 25.3621H321.32V9.67691L316.266 20.3497H314.826L309.809 9.67691V25.3621H307.55V7.15848H310.846L315.692 17.2933L320.38 7.15848H323.737V25.3621Z" fill="black"/>
<path d="M339.875 18.7726H329.828C329.828 19.6121 329.954 20.3456 330.207 20.9732C330.459 21.5926 330.805 22.102 331.244 22.5013C331.667 22.8926 332.168 23.186 332.746 23.3816C333.332 23.5772 333.975 23.675 334.674 23.675C335.602 23.675 336.534 23.4916 337.47 23.1248C338.414 22.7499 339.085 22.3832 339.484 22.0246H339.606V24.5308C338.833 24.8568 338.043 25.1298 337.238 25.3499C336.432 25.5699 335.586 25.6799 334.699 25.6799C332.436 25.6799 330.67 25.0687 329.401 23.8461C328.131 22.6154 327.497 20.8713 327.497 18.6137C327.497 16.3805 328.103 14.6078 329.315 13.2956C330.536 11.9834 332.139 11.3273 334.125 11.3273C335.964 11.3273 337.38 11.8652 338.373 12.9411C339.374 14.0169 339.874 15.5451 339.874 17.5256L339.875 18.7726ZM337.641 17.0121C337.633 15.8059 337.328 14.8727 336.725 14.2125C336.131 13.5524 335.224 13.2223 334.003 13.2223C332.774 13.2223 331.794 13.585 331.061 14.3103C330.337 15.0357 329.926 15.9363 329.828 17.0121H337.641Z" fill="black"/>
<path d="M353.949 25.3621H351.667V23.9073C351.463 24.0458 351.186 24.2414 350.836 24.4941C350.495 24.7386 350.161 24.9342 349.835 25.0809C349.453 25.2684 349.014 25.4232 348.517 25.5455C348.021 25.6759 347.439 25.7411 346.771 25.7411C345.543 25.7411 344.501 25.3336 343.646 24.5186C342.792 23.7035 342.365 22.6644 342.365 21.4011C342.365 20.366 342.584 19.5306 343.024 18.8949C343.472 18.251 344.106 17.7457 344.928 17.3789C345.758 17.0122 346.755 16.7636 347.919 16.6332C349.083 16.5028 350.332 16.405 351.667 16.3398V15.9852C351.667 15.4636 351.573 15.0316 351.386 14.6893C351.207 14.347 350.946 14.0781 350.604 13.8825C350.279 13.695 349.888 13.5687 349.433 13.5035C348.977 13.4383 348.501 13.4057 348.004 13.4057C347.402 13.4057 346.731 13.4872 345.99 13.6502C345.25 13.805 344.485 14.0332 343.695 14.3348H343.573V11.9997C344.021 11.8775 344.668 11.743 345.514 11.5963C346.361 11.4496 347.195 11.3763 348.017 11.3763C348.977 11.3763 349.811 11.4578 350.519 11.6208C351.235 11.7756 351.854 12.0446 352.375 12.4276C352.887 12.8025 353.278 13.2875 353.546 13.8825C353.815 14.4774 353.949 15.215 353.949 16.0953L353.949 25.3621ZM351.667 22.0001V18.198C350.967 18.2388 350.141 18.2999 349.188 18.3814C348.244 18.4629 347.496 18.5811 346.942 18.7359C346.283 18.9234 345.75 19.2168 345.343 19.6162C344.936 20.0074 344.733 20.5494 344.733 21.2421C344.733 22.0246 344.969 22.6155 345.441 23.0148C345.913 23.406 346.633 23.6016 347.602 23.6016C348.407 23.6016 349.144 23.4468 349.811 23.1371C350.478 22.8192 351.097 22.4402 351.667 22.0001Z" fill="black"/>
<path d="M369.794 25.3621H367.499V17.5867C367.499 16.9592 367.462 16.3723 367.389 15.8263C367.316 15.2721 367.182 14.8401 366.986 14.5304C366.783 14.1881 366.49 13.9354 366.107 13.7724C365.725 13.6013 365.229 13.5157 364.618 13.5157C363.992 13.5157 363.336 13.6705 362.653 13.9802C361.969 14.29 361.314 14.6852 360.688 15.1661V25.3621H358.393V11.7063H360.688V13.2223C361.404 12.6273 362.144 12.1627 362.909 11.8286C363.674 11.4944 364.46 11.3273 365.265 11.3273C366.738 11.3273 367.861 11.7715 368.634 12.6599C369.407 13.5483 369.794 14.8279 369.794 16.4987V25.3621Z" fill="black"/>
<path d="M385.272 25.3621H382.978V23.9317C382.318 24.5022 381.631 24.9464 380.915 25.2643C380.198 25.5821 379.421 25.7411 378.583 25.7411C376.955 25.7411 375.661 25.1135 374.701 23.8584C373.749 22.6032 373.273 20.8631 373.273 18.6381C373.273 17.4808 373.436 16.4498 373.761 15.5451C374.095 14.6404 374.542 13.8702 375.104 13.2345C375.657 12.6151 376.3 12.1424 377.033 11.8163C377.773 11.4903 378.538 11.3273 379.328 11.3273C380.044 11.3273 380.679 11.4048 381.232 11.5596C381.785 11.7063 382.367 11.9386 382.978 12.2565V6.33937H385.272V25.3621ZM382.978 22.0001V14.1636C382.359 13.8865 381.806 13.695 381.317 13.589C380.829 13.4831 380.296 13.4301 379.718 13.4301C378.432 13.4301 377.431 13.8784 376.715 14.7749C375.999 15.6714 375.641 16.9429 375.641 18.5892C375.641 20.2111 375.918 21.4459 376.471 22.2935C377.025 23.133 377.912 23.5527 379.132 23.5527C379.783 23.5527 380.443 23.4101 381.11 23.1248C381.777 22.8314 382.4 22.4565 382.978 22.0001Z" fill="black"/>
<path d="M401.203 18.7726H391.156C391.156 19.6121 391.283 20.3456 391.535 20.9732C391.787 21.5926 392.133 22.102 392.572 22.5013C392.996 22.8926 393.496 23.186 394.074 23.3816C394.66 23.5772 395.303 23.675 396.003 23.675C396.93 23.675 397.862 23.4916 398.798 23.1248C399.742 22.7499 400.413 22.3832 400.812 22.0246H400.934V24.5308C400.161 24.8568 399.372 25.1298 398.566 25.3499C397.76 25.5699 396.914 25.6799 396.027 25.6799C393.765 25.6799 391.999 25.0687 390.729 23.8461C389.459 22.6154 388.825 20.8713 388.825 18.6137C388.825 16.3805 389.431 14.6078 390.644 13.2956C391.864 11.9834 393.467 11.3273 395.453 11.3273C397.292 11.3273 398.708 11.8652 399.701 12.9411C400.702 14.0169 401.203 15.5451 401.203 17.5256L401.203 18.7726ZM398.969 17.0121C398.961 15.8059 398.656 14.8727 398.053 14.2125C397.459 13.5524 396.552 13.2223 395.331 13.2223C394.102 13.2223 393.122 13.585 392.389 14.3103C391.665 15.0357 391.254 15.9363 391.156 17.0121H398.969Z" fill="black"/>
<path d="M413.19 14.2125H413.068C412.726 14.131 412.392 14.074 412.067 14.0414C411.75 14.0006 411.371 13.9803 410.932 13.9803C410.224 13.9803 409.54 14.1392 408.881 14.457C408.222 14.7668 407.587 15.1702 406.977 15.6674V25.3621H404.682V11.7063H406.977V13.7235C407.888 12.99 408.69 12.4725 409.381 12.1709C410.081 11.8612 410.793 11.7063 411.518 11.7063C411.916 11.7063 412.205 11.7186 412.384 11.743C412.563 11.7593 412.832 11.796 413.19 11.853L413.19 14.2125Z" fill="black"/>
<path d="M773.055 5H806.442V21.7532H773.055V5Z" fill="white" stroke="black" stroke-width="0.828356"/>
<path d="M471.971 13.1513C471.971 13.5547 471.9 13.9296 471.758 14.276C471.619 14.6183 471.424 14.9158 471.172 15.1685C470.858 15.4822 470.488 15.7186 470.061 15.8775C469.634 16.0324 469.094 16.1098 468.443 16.1098H467.235V19.5024H466.026V10.4006H468.492C469.037 10.4006 469.499 10.4474 469.878 10.5411C470.256 10.6308 470.592 10.7734 470.885 10.969C471.231 11.2013 471.497 11.4907 471.684 11.837C471.875 12.1834 471.971 12.6215 471.971 13.1513L471.971 13.1513ZM470.714 13.1818C470.714 12.8681 470.659 12.595 470.549 12.3627C470.439 12.1305 470.272 11.941 470.048 11.7943C469.853 11.6679 469.629 11.5783 469.377 11.5253C469.129 11.4682 468.814 11.4397 468.431 11.4397H467.235V15.0768H468.254C468.742 15.0768 469.139 15.034 469.444 14.9484C469.749 14.8588 469.998 14.7182 470.189 14.5266C470.38 14.331 470.514 14.1252 470.592 13.9092C470.673 13.6933 470.714 13.4508 470.714 13.1818L470.714 13.1818Z" fill="black"/>
<path d="M474.638 19.5024H473.491V9.99101H474.638V19.5024Z" fill="black"/>
<path d="M482.219 19.5024H481.077V18.7749C480.976 18.8442 480.837 18.942 480.662 19.0684C480.491 19.1906 480.325 19.2884 480.162 19.3618C479.971 19.4555 479.751 19.5329 479.503 19.5941C479.254 19.6593 478.964 19.6919 478.63 19.6919C478.015 19.6919 477.495 19.4881 477.067 19.0806C476.64 18.6731 476.427 18.1535 476.427 17.5218C476.427 17.0043 476.536 16.5866 476.756 16.2687C476.98 15.9468 477.297 15.6941 477.708 15.5108C478.123 15.3274 478.622 15.2031 479.204 15.1379C479.785 15.0727 480.41 15.0238 481.077 14.9912V14.8139C481.077 14.5531 481.031 14.3371 480.937 14.166C480.848 13.9948 480.717 13.8603 480.547 13.7625C480.384 13.6688 480.188 13.6056 479.961 13.573C479.733 13.5404 479.495 13.5241 479.246 13.5241C478.945 13.5241 478.61 13.5649 478.239 13.6464C477.869 13.7238 477.487 13.8379 477.092 13.9887H477.031V12.8212C477.255 12.7601 477.578 12.6928 478.001 12.6195C478.424 12.5461 478.841 12.5094 479.252 12.5094C479.733 12.5094 480.15 12.5502 480.504 12.6317C480.862 12.7091 481.171 12.8436 481.431 13.0351C481.688 13.2226 481.883 13.465 482.017 13.7625C482.152 14.06 482.219 14.4288 482.219 14.8689V19.5024ZM481.077 17.8214V15.9203C480.727 15.9407 480.314 15.9713 479.838 16.012C479.366 16.0528 478.992 16.1118 478.715 16.1893C478.386 16.283 478.119 16.4297 477.916 16.6294C477.712 16.825 477.611 17.096 477.611 17.4424C477.611 17.8336 477.729 18.129 477.965 18.3287C478.201 18.5243 478.561 18.6221 479.045 18.6221C479.448 18.6221 479.816 18.5447 480.15 18.3898C480.483 18.2309 480.793 18.0414 481.077 17.8214Z" fill="black"/>
<path d="M490.239 12.6745L486.259 22.0208H485.032L486.302 19.1723L483.586 12.6745H484.831L486.925 17.7358L489.036 12.6745H490.239Z" fill="black"/>
<path d="M492.973 11.5314H491.679V10.3394H492.973V11.5314ZM492.9 19.5024H491.752V12.6745H492.9V19.5024Z" fill="black"/>
<path d="M500.883 19.5024H499.736V15.6147C499.736 15.3009 499.717 15.0075 499.681 14.7345C499.644 14.4573 499.577 14.2414 499.479 14.0865C499.378 13.9154 499.231 13.789 499.04 13.7075C498.849 13.6219 498.601 13.5792 498.295 13.5792C497.982 13.5792 497.655 13.6566 497.313 13.8114C496.971 13.9663 496.643 14.1639 496.33 14.4044V19.5024H495.183V12.6745H496.33V13.4325C496.688 13.135 497.058 12.9027 497.441 12.7356C497.823 12.5685 498.216 12.485 498.619 12.485C499.355 12.485 499.917 12.7071 500.303 13.1513C500.69 13.5955 500.883 14.2353 500.883 15.0707L500.883 19.5024Z" fill="black"/>
<path d="M508.623 18.726C508.623 19.8834 508.36 20.7331 507.835 21.275C507.31 21.817 506.503 22.088 505.412 22.088C505.05 22.088 504.696 22.0615 504.35 22.0086C504.008 21.9597 503.671 21.8883 503.337 21.7946V20.621H503.398C503.585 20.6943 503.882 20.784 504.289 20.8899C504.696 21 505.103 21.055 505.51 21.055C505.901 21.055 506.224 21.0081 506.481 20.9144C506.737 20.8207 506.936 20.6903 507.079 20.5232C507.221 20.3643 507.323 20.1727 507.384 19.9486C507.445 19.7245 507.475 19.4738 507.475 19.1967V18.5732C507.129 18.8503 506.798 19.0582 506.48 19.1967C506.167 19.3312 505.766 19.3984 505.278 19.3984C504.464 19.3984 503.817 19.105 503.337 18.5182C502.861 17.9273 502.623 17.096 502.623 16.0242C502.623 15.4374 502.704 14.9321 502.867 14.5083C503.034 14.0804 503.26 13.7116 503.545 13.4019C503.809 13.1126 504.131 12.8884 504.509 12.7295C504.887 12.5665 505.264 12.485 505.638 12.485C506.033 12.485 506.363 12.5257 506.627 12.6072C506.896 12.6847 507.178 12.8049 507.475 12.9679L507.549 12.6745H508.623L508.623 18.726ZM507.475 17.6258V13.9031C507.17 13.7646 506.885 13.6668 506.621 13.6097C506.36 13.5486 506.1 13.518 505.84 13.518C505.209 13.518 504.712 13.7299 504.35 14.1537C503.988 14.5776 503.807 15.1929 503.807 15.9998C503.807 16.7659 503.941 17.3466 504.21 17.7419C504.478 18.1372 504.924 18.3348 505.547 18.3348C505.88 18.3348 506.214 18.2717 506.548 18.1453C506.885 18.0149 507.195 17.8417 507.475 17.6258Z" fill="black"/>
<path d="M522.301 19.5024H520.805L516.496 11.3603V19.5024H515.367V10.4006H517.241L521.172 17.8336V10.4006H522.301V19.5024Z" fill="black"/>
<path d="M530.437 16.0915C530.437 17.204 530.152 18.0822 529.582 18.726C529.013 19.3699 528.25 19.6919 527.293 19.6919C526.329 19.6919 525.562 19.3699 524.992 18.726C524.427 18.0822 524.144 17.204 524.144 16.0915C524.144 14.979 524.427 14.1008 524.992 13.4569C525.562 12.809 526.329 12.485 527.293 12.485C528.25 12.485 529.013 12.809 529.582 13.4569C530.152 14.1008 530.437 14.979 530.437 16.0915ZM529.253 16.0915C529.253 15.2072 529.08 14.5511 528.734 14.1232C528.388 13.6912 527.908 13.4752 527.293 13.4752C526.671 13.4752 526.187 13.6912 525.841 14.1232C525.499 14.5511 525.328 15.2072 525.328 16.0915C525.328 16.9473 525.501 17.5972 525.847 18.0414C526.193 18.4815 526.675 18.7016 527.293 18.7016C527.904 18.7016 528.382 18.4836 528.728 18.0475C529.078 17.6074 529.253 16.9554 529.253 16.0915Z" fill="black"/>
<path d="M535.759 19.4412C535.543 19.4983 535.307 19.5452 535.051 19.5818C534.799 19.6185 534.573 19.6369 534.374 19.6369C533.678 19.6369 533.149 19.4494 532.787 19.0745C532.424 18.6996 532.243 18.0985 532.243 17.2712V13.6403H531.468V12.6745H532.243V10.7123H533.391V12.6745H535.759V13.6403H533.391V16.7517C533.391 17.1103 533.399 17.3915 533.414 17.5952C533.43 17.7949 533.487 17.9823 533.585 18.1576C533.675 18.3206 533.797 18.4408 533.952 18.5182C534.11 18.5916 534.35 18.6283 534.672 18.6283C534.859 18.6283 535.054 18.6018 535.258 18.5488C535.461 18.4917 535.608 18.4449 535.697 18.4082H535.758L535.759 19.4412Z" fill="black"/>
<path d="M542.857 16.2076H537.834C537.834 16.6274 537.897 16.9941 538.023 17.3079C538.15 17.6176 538.322 17.8723 538.542 18.072C538.754 18.2676 539.004 18.4143 539.293 18.5121C539.586 18.6099 539.907 18.6588 540.257 18.6588C540.721 18.6588 541.187 18.5671 541.655 18.3837C542.127 18.1963 542.463 18.0129 542.662 17.8336H542.723V19.0867C542.337 19.2497 541.942 19.3862 541.539 19.4962C541.136 19.6063 540.713 19.6613 540.27 19.6613C539.138 19.6613 538.255 19.3557 537.621 18.7444C536.986 18.129 536.668 17.257 536.668 16.1282C536.668 15.0116 536.972 14.1252 537.578 13.4691C538.188 12.813 538.99 12.485 539.983 12.485C540.902 12.485 541.61 12.7539 542.107 13.2919C542.607 13.8298 542.857 14.5939 542.857 15.5841L542.857 16.2076ZM541.74 15.3274C541.736 14.7243 541.584 14.2577 541.283 13.9276C540.986 13.5975 540.532 13.4325 539.921 13.4325C539.307 13.4325 538.817 13.6138 538.451 13.9765C538.088 14.3392 537.883 14.7895 537.834 15.3274H541.74Z" fill="black"/>
<path d="M549.467 17.5341C549.467 18.1576 549.209 18.669 548.692 19.0684C548.18 19.4677 547.478 19.6674 546.586 19.6674C546.082 19.6674 545.618 19.6083 545.195 19.4901C544.776 19.3679 544.424 19.2354 544.139 19.0928V17.803H544.2C544.562 18.0761 544.965 18.2941 545.409 18.4571C545.852 18.616 546.277 18.6955 546.684 18.6955C547.189 18.6955 547.583 18.614 547.868 18.451C548.153 18.288 548.296 18.0312 548.296 17.6808C548.296 17.4118 548.218 17.2081 548.063 17.0695C547.909 16.931 547.612 16.8128 547.172 16.715C547.01 16.6783 546.796 16.6355 546.531 16.5866C546.271 16.5377 546.033 16.4847 545.817 16.4277C545.219 16.2687 544.794 16.0365 544.542 15.7308C544.293 15.4211 544.169 15.0421 544.169 14.5939C544.169 14.3127 544.226 14.0478 544.34 13.7992C544.458 13.5506 544.635 13.3285 544.871 13.1329C545.099 12.9414 545.388 12.7906 545.738 12.6806C546.092 12.5665 546.487 12.5094 546.922 12.5094C547.329 12.5094 547.74 12.5604 548.155 12.6622C548.574 12.76 548.922 12.8803 549.199 13.0229V14.2515H549.138C548.845 14.0356 548.489 13.8542 548.07 13.7075C547.65 13.5567 547.239 13.4813 546.837 13.4813C546.417 13.4813 546.063 13.5629 545.775 13.7259C545.486 13.8848 545.341 14.1232 545.341 14.441C545.341 14.7222 545.429 14.9341 545.604 15.0768C545.775 15.2194 546.051 15.3355 546.434 15.4252C546.645 15.4741 546.881 15.523 547.142 15.5719C547.406 15.6208 547.626 15.6656 547.801 15.7064C548.334 15.8286 548.745 16.0385 549.034 16.336C549.323 16.6375 549.467 17.0369 549.467 17.5341L549.467 17.5341Z" fill="black"/>
<path opacity="0.52" d="M239.652 45.4599H305.643V60.5185H239.652V45.4599Z" fill="#FF2020" fill-opacity="0.501961" stroke="white" stroke-width="0.765"/>
<path opacity="0.52" d="M308.149 44.6233H374.141V59.6819H308.149V44.6233Z" fill="#2020FF" fill-opacity="0.501961" stroke="white" stroke-width="0.765"/>
<path opacity="0.52" d="M378.317 44.6233H444.308V59.6819H378.317V44.6233Z" fill="#20FF20" fill-opacity="0.501961" stroke="white" stroke-width="0.765"/>
<path d="M266.715 56.2394H265.708V49.7039L263.602 54.1509H263.002L260.912 49.7039V56.2394H259.971V48.6546H261.344L263.363 52.8775L265.316 48.6546H266.715V56.2394Z" fill="black"/>
<path d="M273.098 56.2394H272.147V55.6333C272.062 55.691 271.947 55.7725 271.801 55.8778C271.659 55.9796 271.52 56.0611 271.384 56.1223C271.225 56.2004 271.042 56.2649 270.835 56.3158C270.628 56.3702 270.386 56.3973 270.108 56.3973C269.596 56.3973 269.162 56.2275 268.806 55.8879C268.45 55.5483 268.271 55.1154 268.271 54.589C268.271 54.1577 268.363 53.8096 268.546 53.5447C268.733 53.2765 268.997 53.0659 269.34 52.9131C269.685 52.7603 270.101 52.6567 270.586 52.6024C271.071 52.548 271.591 52.5073 272.147 52.4801V52.3324C272.147 52.1151 272.108 51.9351 272.03 51.7925C271.956 51.6498 271.847 51.5377 271.705 51.4563C271.569 51.3781 271.406 51.3255 271.216 51.2983C271.027 51.2712 270.828 51.2576 270.621 51.2576C270.37 51.2576 270.091 51.2915 269.782 51.3595C269.474 51.424 269.155 51.5191 268.826 51.6447H268.775V50.6718C268.962 50.6208 269.231 50.5648 269.584 50.5037C269.936 50.4426 270.284 50.412 270.626 50.412C271.027 50.412 271.374 50.4459 271.669 50.5139C271.968 50.5784 272.225 50.6905 272.442 50.8501C272.656 51.0063 272.819 51.2083 272.931 51.4562C273.042 51.7041 273.098 52.0115 273.098 52.3782V56.2394ZM272.147 54.8386V53.2544C271.856 53.2714 271.511 53.2968 271.115 53.3308C270.721 53.3648 270.409 53.414 270.179 53.4785C269.904 53.5566 269.682 53.6789 269.513 53.8453C269.343 54.0083 269.258 54.2341 269.258 54.5228C269.258 54.8488 269.357 55.095 269.553 55.2614C269.75 55.4244 270.05 55.5059 270.454 55.5059C270.789 55.5059 271.096 55.4414 271.374 55.3123C271.652 55.1799 271.91 55.022 272.147 54.8386V54.8386Z" fill="black"/>
<path d="M276.72 49.597H275.642V48.6037H276.72V49.597ZM276.659 56.377C276.659 57.0426 276.489 57.5452 276.15 57.8848C275.811 58.2244 275.357 58.3942 274.787 58.3942C274.652 58.3942 274.472 58.3806 274.248 58.3534C274.028 58.3263 273.843 58.2923 273.694 58.2516V57.3397H273.744C273.839 57.3771 273.967 57.4195 274.126 57.4671C274.289 57.5146 274.446 57.5384 274.599 57.5384C274.843 57.5384 275.04 57.5044 275.189 57.4365C275.338 57.3686 275.45 57.2667 275.525 57.1309C275.599 56.9951 275.647 56.8304 275.667 56.6368C275.691 56.4466 275.703 56.214 275.703 55.9389V51.3544H274.518V50.5496H276.659V56.377Z" fill="black"/>
<path d="M283.373 53.397C283.373 54.3241 283.135 55.056 282.661 55.5925C282.186 56.1291 281.55 56.3974 280.753 56.3974C279.95 56.3974 279.31 56.1291 278.836 55.5925C278.364 55.056 278.129 54.3241 278.129 53.397C278.129 52.47 278.364 51.7381 278.836 51.2016C279.31 50.6616 279.95 50.3916 280.753 50.3916C281.55 50.3916 282.186 50.6616 282.661 51.2016C283.135 51.7381 283.373 52.47 283.373 53.397ZM282.386 53.397C282.386 52.6601 282.242 52.1134 281.954 51.7568C281.665 51.3968 281.265 51.2168 280.753 51.2168C280.234 51.2168 279.831 51.3968 279.543 51.7568C279.258 52.1134 279.115 52.6601 279.115 53.397C279.115 54.1102 279.26 54.6518 279.548 55.022C279.836 55.3888 280.238 55.5721 280.753 55.5721C281.262 55.5721 281.66 55.3905 281.948 55.0271C282.24 54.6603 282.386 54.117 282.386 53.397Z" fill="black"/>
<path d="M288.403 51.5938H288.352C288.21 51.5598 288.071 51.5361 287.935 51.5225C287.803 51.5055 287.645 51.497 287.462 51.497C287.167 51.497 286.882 51.5633 286.608 51.6957C286.333 51.8248 286.068 51.9929 285.814 52.2V56.2395H284.858V50.5496H285.814V51.3901C286.194 51.0844 286.528 50.8688 286.816 50.7431C287.108 50.6141 287.404 50.5496 287.706 50.5496C287.872 50.5496 287.993 50.5547 288.067 50.5649C288.142 50.5716 288.254 50.5869 288.403 50.6108V51.5938Z" fill="black"/>
<path d="M332.707 55.4028H331.699V48.8673L329.594 53.3143H328.994L326.903 48.8673V55.4028H325.962V47.818H327.335L329.355 52.0408L331.308 47.818H332.707V55.4028Z" fill="black"/>
<path d="M335.702 48.7604H334.624V47.767H335.702V48.7604ZM335.641 55.4028H334.685V49.7129H335.641V55.4028Z" fill="black"/>
<path d="M342.294 55.4028H341.338V52.1631C341.338 51.9016 341.323 51.6571 341.292 51.4296C341.262 51.1987 341.206 51.0187 341.124 50.8896C341.04 50.747 340.918 50.6417 340.758 50.5738C340.599 50.5025 340.392 50.4668 340.138 50.4668C339.877 50.4668 339.604 50.5314 339.319 50.6604C339.034 50.7895 338.761 50.9542 338.5 51.1545V55.4029H337.544V49.7129H338.5V50.3446C338.798 50.0967 339.107 49.9031 339.426 49.7639C339.744 49.6247 340.072 49.5551 340.407 49.5551C341.021 49.5551 341.489 49.7401 341.811 50.1103C342.133 50.4804 342.294 51.0136 342.294 51.7098L342.294 55.4028Z" fill="black"/>
<path d="M348.977 52.5604C348.977 53.4875 348.74 54.2193 348.265 54.7559C347.791 55.2925 347.155 55.5607 346.358 55.5607C345.554 55.5607 344.915 55.2925 344.44 54.7559C343.969 54.2193 343.733 53.4875 343.733 52.5604C343.733 51.6333 343.969 50.9015 344.44 50.3649C344.915 49.825 345.554 49.555 346.358 49.555C347.155 49.555 347.791 49.825 348.265 50.3649C348.74 50.9015 348.977 51.6333 348.977 52.5604ZM347.991 52.5604C347.991 51.8235 347.847 51.2768 347.558 50.9202C347.27 50.5602 346.87 50.3802 346.358 50.3802C345.839 50.3802 345.436 50.5602 345.147 50.9202C344.863 51.2768 344.72 51.8235 344.72 52.5604C344.72 53.2736 344.864 53.8152 345.152 54.1854C345.441 54.5521 345.843 54.7355 346.358 54.7355C346.867 54.7355 347.265 54.5538 347.553 54.1905C347.845 53.8237 347.991 53.2804 347.991 52.5604Z" fill="black"/>
<path d="M354.008 50.7572H353.957C353.814 50.7232 353.675 50.6994 353.54 50.6858C353.408 50.6689 353.25 50.6604 353.067 50.6604C352.772 50.6604 352.487 50.7266 352.212 50.8591C351.938 50.9881 351.673 51.1562 351.419 51.3634V55.4029H350.463V49.7129H351.419V50.5534C351.799 50.2478 352.133 50.0322 352.421 49.9065C352.712 49.7775 353.009 49.7129 353.311 49.7129C353.477 49.7129 353.597 49.7181 353.672 49.7283C353.747 49.735 353.859 49.7503 354.008 49.7742L354.008 50.7572Z" fill="black"/>
<path d="M389.163 51.6181C389.163 52.3075 389.013 52.9323 388.711 53.4926C388.412 54.053 388.014 54.4877 387.515 54.7967C387.17 55.0106 386.783 55.1651 386.356 55.2602C385.932 55.3553 385.372 55.4029 384.677 55.4029H382.765V47.818H384.657C385.396 47.818 385.983 47.8724 386.417 47.981C386.854 48.0863 387.224 48.2323 387.526 48.4191C388.041 48.7417 388.443 49.1713 388.731 49.7079C389.019 50.2444 389.163 50.8812 389.163 51.6181V51.6181ZM388.111 51.6027C388.111 51.0084 388.007 50.5075 387.8 50.1C387.593 49.6925 387.285 49.3716 386.875 49.1373C386.576 48.9675 386.259 48.8503 385.923 48.7858C385.588 48.7179 385.186 48.6839 384.718 48.6839H383.772V54.5368H384.718C385.203 54.5368 385.625 54.5011 385.984 54.4298C386.347 54.3585 386.68 54.2261 386.981 54.0325C387.358 53.7914 387.639 53.4739 387.826 53.08C388.016 52.686 388.111 52.1936 388.111 51.6027L388.111 51.6027Z" fill="black"/>
<path d="M391.752 48.7604H390.674V47.7671H391.752V48.7604ZM391.691 55.4029H390.735V49.713H391.691V55.4029Z" fill="black"/>
<path d="M401.884 55.4029H400.928V52.1631C400.928 51.9186 400.916 51.6826 400.892 51.4551C400.872 51.2276 400.826 51.0459 400.755 50.91C400.677 50.764 400.565 50.6536 400.419 50.5789C400.273 50.5042 400.063 50.4669 399.788 50.4669C399.52 50.4669 399.253 50.5348 398.985 50.6706C398.717 50.8031 398.449 50.9728 398.181 51.18C398.191 51.2581 398.2 51.3498 398.208 51.4551C398.214 51.557 398.217 51.6588 398.217 51.7607V55.4029H397.26V52.1631C397.26 51.9118 397.248 51.6741 397.225 51.45C397.204 51.2225 397.159 51.0408 397.087 50.9049C397.009 50.7589 396.897 50.6502 396.752 50.5789C396.606 50.5042 396.395 50.4668 396.121 50.4668C395.86 50.4668 395.597 50.5314 395.333 50.6604C395.071 50.7895 394.81 50.9542 394.549 51.1545V55.4029H393.593V49.713H394.549V50.3446C394.848 50.0967 395.144 49.9031 395.439 49.7639C395.738 49.6247 396.055 49.5551 396.39 49.5551C396.777 49.5551 397.104 49.6366 397.372 49.7996C397.643 49.9626 397.845 50.1884 397.977 50.4771C398.364 50.151 398.717 49.9167 399.035 49.7741C399.354 49.6281 399.695 49.5551 400.058 49.5551C400.682 49.5551 401.141 49.7452 401.436 50.1256C401.734 50.5025 401.884 51.0306 401.884 51.7098L401.884 55.4029Z" fill="black"/>
<path d="M404.753 48.7604H403.675V47.7671H404.753V48.7604ZM404.692 55.4029H403.736V49.713H404.692V55.4029Z" fill="black"/>
<path d="M411.345 55.4029H410.388V52.1631C410.388 51.9016 410.373 51.6571 410.343 51.4296C410.312 51.1987 410.256 51.0187 410.175 50.8897C410.09 50.747 409.968 50.6417 409.809 50.5738C409.649 50.5025 409.442 50.4669 409.188 50.4669C408.927 50.4669 408.654 50.5314 408.369 50.6604C408.084 50.7895 407.812 50.9542 407.55 51.1546V55.4029H406.594V49.713H407.55V50.3446C407.849 50.0967 408.157 49.9032 408.476 49.7639C408.795 49.6247 409.122 49.5551 409.458 49.5551C410.072 49.5551 410.539 49.7402 410.862 50.1103C411.184 50.4805 411.345 51.0136 411.345 51.7098L411.345 55.4029Z" fill="black"/>
<path d="M414.213 48.7604H413.135V47.7671H414.213V48.7604ZM414.152 55.4029H413.196V49.713H414.152V55.4029Z" fill="black"/>
<path d="M420.113 53.7626C420.113 54.2822 419.898 54.7084 419.467 55.0412C419.04 55.374 418.455 55.5404 417.713 55.5404C417.292 55.5404 416.906 55.4912 416.553 55.3927C416.204 55.2908 415.91 55.1804 415.673 55.0616V53.9868H415.724C416.026 54.2143 416.361 54.396 416.731 54.5318C417.101 54.6643 417.455 54.7305 417.794 54.7305C418.214 54.7305 418.543 54.6626 418.781 54.5267C419.018 54.3909 419.137 54.1769 419.137 53.8849C419.137 53.6608 419.072 53.491 418.943 53.3755C418.815 53.26 418.567 53.1615 418.201 53.08C418.065 53.0495 417.887 53.0138 417.667 52.9731C417.45 52.9323 417.251 52.8882 417.072 52.8406C416.573 52.7082 416.219 52.5146 416.009 52.2599C415.802 52.0018 415.698 51.686 415.698 51.3125C415.698 51.0781 415.746 50.8574 415.841 50.6503C415.939 50.4431 416.086 50.258 416.283 50.095C416.473 49.9354 416.714 49.8098 417.005 49.7181C417.3 49.623 417.629 49.5754 417.992 49.5754C418.331 49.5754 418.674 49.6179 419.02 49.7028C419.369 49.7843 419.659 49.8845 419.889 50.0033V51.0272H419.839C419.594 50.8472 419.298 50.6961 418.948 50.5738C418.599 50.4482 418.257 50.3853 417.921 50.3853C417.572 50.3853 417.277 50.4533 417.036 50.5891C416.795 50.7215 416.675 50.9202 416.675 51.1851C416.675 51.4194 416.748 51.596 416.894 51.7149C417.036 51.8337 417.267 51.9305 417.585 52.0052C417.762 52.046 417.958 52.0867 418.175 52.1275C418.396 52.1682 418.579 52.2056 418.725 52.2395C419.169 52.3414 419.511 52.5163 419.752 52.7642C419.993 53.0155 420.113 53.3483 420.113 53.7626L420.113 53.7626Z" fill="black"/>
<path d="M426.237 55.4029H425.281V52.1631C425.281 51.9017 425.266 51.6571 425.235 51.4296C425.205 51.1987 425.149 51.0187 425.068 50.8897C424.983 50.747 424.861 50.6418 424.701 50.5738C424.542 50.5025 424.335 50.4669 424.081 50.4669C423.82 50.4669 423.547 50.5314 423.262 50.6605C422.977 50.7895 422.704 50.9542 422.443 51.1546V55.4029H421.487V47.4768H422.443V50.3446C422.741 50.0967 423.05 49.9032 423.369 49.7639C423.687 49.6247 424.015 49.5551 424.35 49.5551C424.964 49.5551 425.432 49.7402 425.754 50.1103C426.076 50.4805 426.237 51.0137 426.237 51.7098L426.237 55.4029Z" fill="black"/>
<path d="M432.834 52.6573H428.648C428.648 53.007 428.701 53.3127 428.806 53.5742C428.911 53.8323 429.055 54.0445 429.238 54.2109C429.414 54.3739 429.623 54.4962 429.864 54.5777C430.108 54.6592 430.376 54.6999 430.667 54.6999C431.054 54.6999 431.442 54.6235 431.832 54.4707C432.225 54.3145 432.505 54.1617 432.671 54.0123H432.722V55.0565C432.4 55.1923 432.071 55.3061 431.735 55.3978C431.4 55.4895 431.047 55.5353 430.677 55.5353C429.735 55.5353 428.999 55.2806 428.47 54.7713C427.941 54.2585 427.677 53.5317 427.677 52.5911C427.677 51.6606 427.929 50.9219 428.434 50.3752C428.943 49.8285 429.611 49.5551 430.438 49.5551C431.205 49.5551 431.795 49.7792 432.208 50.2275C432.625 50.6757 432.834 51.3125 432.834 52.1377L432.834 52.6573ZM431.903 51.9237C431.899 51.4211 431.772 51.0323 431.522 50.7572C431.274 50.4822 430.896 50.3446 430.388 50.3446C429.876 50.3446 429.467 50.4957 429.162 50.798C428.86 51.1002 428.689 51.4755 428.648 51.9237H431.903Z" fill="black"/>
<path d="M438.892 55.4029H437.936V54.8069C437.661 55.0446 437.375 55.2297 437.076 55.3621C436.778 55.4946 436.454 55.5608 436.105 55.5608C435.426 55.5608 434.887 55.2993 434.487 54.7763C434.09 54.2533 433.892 53.5283 433.892 52.6012C433.892 52.119 433.96 51.6894 434.096 51.3125C434.234 50.9355 434.421 50.6146 434.655 50.3497C434.886 50.0916 435.154 49.8946 435.459 49.7588C435.767 49.623 436.086 49.5551 436.415 49.5551C436.713 49.5551 436.978 49.5873 437.208 49.6518C437.439 49.713 437.681 49.8098 437.936 49.9422V47.4768H438.892V55.4029ZM437.936 54.002V50.7368C437.678 50.6214 437.447 50.5416 437.244 50.4974C437.041 50.4533 436.818 50.4312 436.578 50.4312C436.042 50.4312 435.625 50.618 435.326 50.9915C435.028 51.3651 434.879 51.8949 434.879 52.5808C434.879 53.2566 434.994 53.7711 435.225 54.1243C435.455 54.4741 435.825 54.649 436.333 54.649C436.605 54.649 436.879 54.5895 437.158 54.4707C437.436 54.3484 437.695 54.1922 437.936 54.002V54.002Z" fill="black"/>
<path d="M555.807 5H589.194V21.7532H555.807V5Z" fill="white" stroke="black" stroke-width="0.828356"/>
<path d="M589.194 5H622.581V21.7532H589.194V5Z" fill="white" stroke="black" stroke-width="0.828356"/>
<path d="M622.581 5H655.967V21.7532H622.581V5Z" fill="white" stroke="black" stroke-width="0.828356"/>
<path d="M943.307 5H976.693V21.7532H943.307V5Z" fill="white" stroke="black" stroke-width="0.828356"/>
<path d="M976.694 5H1010.08V21.7532H976.694V5Z" fill="white" stroke="black" stroke-width="0.828356"/>
<path d="M655.967 5H689.354V21.7532H655.967V5Z" fill="white" stroke="black" stroke-width="0.828356"/>
</g>
<defs>
<clipPath id="clip0">
<rect width="1200" height="380" fill="white"/>
</clipPath>
</defs>
</svg>
